PathFileType	4	(X/Y/Z)	C:\Users\Graham\Documents\MATLAB\MOtoNMS_v2_2\MyData\ElaboratedData\S4\17-05-18\staticElaborations\Static1\Static1\\Static1.trc
DataRate	CameraRate	NumFrames	NumMarkers	Units	OrigDataRate	DataStartFrame
100	100	8	38	mm	100	2
Frame#	Time	V_Sacral			R_ASIS			L_ASIS			R_Knee_Lat			R_Knee_Med			R_Thigh_Upper			R_Thigh_Front			R_Thigh_Rear			L_Knee_Lat			L_Knee_Med			L_Thigh_Upper			L_Thigh_Front			L_Thigh_Rear			R_Ankle_Lat			R_Ankle_Med			R_Shank_Upper			R_Shank_Front			R_Shank_Rear			L_Ankle_Lat			L_Ankle_Med			L_Shank_Upper			L_Shank_Front			L_Shank_Rear			R_Heel			R_MTP1			R_MTP5			L_Heel			L_MTP1			L_MTP5			Clavicle			R_Acromium			L_Acromium			LAJC			RAJC			LHJC			RHJC			LKJC			RKJC		
		X1	Y1	Z1	X2	Y2	Z2	X3	Y3	Z3	X4	Y4	Z4	X5	Y5	Z5	X6	Y6	Z6	X7	Y7	Z7	X8	Y8	Z8	X9	Y9	Z9	X10	Y10	Z10	X11	Y11	Z11	X12	Y12	Z12	X13	Y13	Z13	X14	Y14	Z14	X15	Y15	Z15	X16	Y16	Z16	X17	Y17	Z17	X18	Y18	Z18	X19	Y19	Z19	X20	Y20	Z20	X21	Y21	Z21	X22	Y22	Z22	X23	Y23	Z23	X24	Y24	Z24	X25	Y25	Z25	X26	Y26	Z26	X27	Y27	Z27	X28	Y28	Z28	X29	Y29	Z29	X30	Y30	Z30	X31	Y31	Z31	X32	Y32	Z32	X33	Y33	Z33	X34	Y34	Z34	X35	Y35	Z35	X36	Y36	Z36	X37	Y37	Z37	X38	Y38	Z38	

153	1.520000	-134.330501	1010.495626	19.201516	66.820555	982.927985	150.215375	84.960694	976.165474	-84.594322	-43.301212	504.875806	203.965245	-38.237877	494.634611	95.415323	92.550719	737.658956	141.116296	43.041428	631.920918	90.645214	44.231070	623.891929	175.189366	-55.913133	512.128838	-158.212630	-71.876445	486.420901	-38.680105	95.082549	756.225870	-70.017538	44.705758	643.791828	-32.907150	58.212083	638.931784	-109.008098	-155.244985	104.331210	222.921890	-132.043610	119.342950	130.397601	-27.975121	327.276750	189.255180	-86.662909	223.395682	143.912198	-87.253834	225.477248	225.572894	-146.563889	97.309364	-152.528620	-124.789568	120.671290	-60.944751	-39.376081	366.768961	-125.204144	-79.689777	252.201520	-85.272786	-74.789337	254.710719	-166.125609	-225.736397	58.183725	179.633405	5.319393	64.231327	165.448466	-8.779243	58.264084	238.255507	-220.135217	55.598029	-104.822064	8.699861	60.861801	-83.514365	-15.670020	55.395401	-171.372515	14.156119	1393.441994	14.919203	-74.226095	1444.323937	205.177769	-71.804177	1438.409045	-178.369202	-135.676729	108.990327	-106.736686	-143.644298	111.837080	176.659746	10.311354	905.257656	-55.454960	-2.785241	910.139971	114.070069	-63.894789	499.274870	-98.446368	-40.769544	499.755208	149.690284	
154	1.530000	-134.173933	1010.430313	19.186805	66.944329	982.960410	150.240306	85.143895	976.178449	-84.580583	-43.193985	504.859635	203.973596	-38.130871	494.615622	95.418180	92.717788	737.666893	141.151386	43.210865	631.922763	90.663483	44.377277	623.888136	175.215008	-55.778663	512.114094	-158.187049	-71.786591	486.430571	-38.675069	95.264801	756.209496	-69.972837	44.702580	643.666443	-32.867700	58.382034	638.918145	-108.967406	-155.221117	104.330993	222.918553	-132.027658	119.346798	130.389504	-27.907697	327.255034	189.257932	-86.645585	223.385823	143.906762	-87.212320	225.467577	225.572513	-146.557561	97.317753	-152.527336	-124.779648	120.673007	-60.940115	-39.287008	366.746035	-125.188495	-79.642293	252.187995	-85.270194	-74.734266	254.701740	-166.117303	-225.733432	58.193740	179.628014	5.388431	64.336339	165.463080	-8.776570	58.260298	238.252319	-220.138155	55.604021	-104.816519	8.699802	60.859532	-83.516204	-15.668205	55.394895	-171.371125	14.093234	1393.443241	14.894091	-74.346720	1444.294238	205.139487	-71.859981	1438.349212	-178.423067	-135.668605	108.995380	-106.733725	-143.624388	111.838896	176.654029	10.518648	905.238495	-55.447780	-2.620774	910.134823	114.084322	-63.782627	499.272332	-98.431059	-40.662428	499.737629	149.695888	
155	1.540000	-134.016724	1010.361414	19.173278	67.070068	982.993158	150.265497	85.328102	976.189648	-84.569453	-43.084434	504.843542	203.982790	-38.012980	494.606066	95.428668	92.885989	737.675769	141.187738	43.380362	631.923492	90.685756	44.525973	623.886188	175.240254	-55.642906	512.098025	-158.162438	-71.689038	486.436237	-38.667109	95.449421	756.193298	-69.927260	44.684026	643.525949	-32.826592	58.554335	638.904206	-108.926283	-155.194870	104.329792	222.915395	-132.010042	119.351328	130.380928	-27.839296	327.232802	189.262353	-86.624611	223.375263	143.901374	-87.171636	225.457574	225.572415	-146.551027	97.325821	-152.525550	-124.770049	120.674992	-60.935622	-39.197639	366.722429	-125.172241	-79.594548	252.173439	-85.266631	-74.677699	254.692727	-166.109119	-225.730998	58.204455	179.622949	5.474358	64.471917	165.481925	-8.774413	58.257146	238.249824	-220.141375	55.609759	-104.810317	8.699591	60.856682	-83.516273	-15.666418	55.394254	-171.370043	14.029195	1393.442716	14.867735	-74.464845	1444.260898	205.101685	-71.913655	1438.290495	-178.479179	-135.660538	109.000407	-106.730586	-143.602456	111.840560	176.648162	10.727836	905.216028	-55.441607	-2.453705	910.127879	114.099464	-63.665972	499.267131	-98.414774	-40.548707	499.724804	149.705729	
156	1.550000	-133.858368	1010.290840	19.160581	67.198573	983.026840	150.290714	85.513450	976.199293	-84.560794	-42.974207	504.828129	203.992476	-37.887634	494.604616	95.444895	93.052966	737.685139	141.224943	43.547344	631.923021	90.711703	44.675291	623.886104	175.264918	-55.506227	512.081642	-158.142272	-71.583242	486.437423	-38.657320	95.635356	756.177366	-69.880883	44.670525	643.386828	-32.784560	58.727986	638.890219	-108.884670	-155.168234	104.328707	222.911987	-131.991099	119.356474	130.372003	-27.770836	327.210931	189.268578	-86.599067	223.365224	143.896204	-87.132361	225.447977	225.572646	-146.544215	97.333717	-152.523193	-124.760777	120.677424	-60.931312	-39.108665	366.698726	-125.155449	-79.546496	252.158351	-85.262083	-74.619970	254.683915	-166.101059	-225.728854	58.215878	179.618041	5.574387	64.633795	165.504167	-8.772642	58.254640	238.248047	-220.144199	55.615393	-104.804101	8.699374	60.853438	-83.514822	-15.664625	55.393503	-171.369188	13.964751	1393.441054	14.840007	-74.580008	1444.225237	205.063590	-71.965575	1438.234124	-178.536701	-135.652496	109.005570	-106.727252	-143.579666	111.842591	176.641995	10.938600	905.191170	-55.436109	-2.283876	910.120337	114.115582	-63.544734	499.259533	-98.399796	-40.430920	499.716372	149.718686	
157	1.560000	-133.698583	1010.220646	19.148416	67.330315	983.061970	150.315766	85.699853	976.207764	-84.554300	-42.864941	504.813959	204.002250	-37.758812	494.609335	95.464584	93.216553	737.694550	141.262464	43.709319	631.921439	90.740664	44.823332	623.887774	175.288873	-55.369058	512.066143	-158.129956	-71.469507	486.434123	-38.647971	95.821492	756.161795	-69.833835	44.678961	643.263271	-32.742491	58.901831	638.876480	-108.842597	-155.143438	104.328950	222.907872	-131.971210	119.362122	130.362866	-27.703270	327.190301	189.276526	-86.568869	223.356605	143.891323	-87.094943	225.439468	225.573231	-146.537059	97.341627	-152.520206	-124.751768	120.680441	-60.927249	-39.020743	366.675564	-125.138262	-79.498023	252.143424	-85.256556	-74.561527	254.675584	-166.093137	-225.726837	58.227959	179.613033	5.684369	64.815069	165.528562	-8.771124	58.252657	238.246926	-220.145892	55.621121	-104.798625	8.699345	60.849953	-83.512179	-15.662812	55.392654	-171.368432	13.900682	1393.439025	14.810926	-74.691918	1444.188883	205.024533	-72.016214	1438.181159	-178.594733	-135.644413	109.011034	-106.723728	-143.557324	111.845536	176.635369	11.150358	905.165037	-55.430925	-2.111467	910.113407	114.132712	-63.419282	499.250133	-98.388963	-40.311877	499.711647	149.733417	
158	1.570000	-133.537375	1010.152854	19.136578	67.465391	983.098901	150.340512	85.886979	976.215552	-84.549493	-42.758171	504.801503	204.011716	-37.630498	494.618061	95.485499	93.374893	737.703535	141.299675	43.864122	631.918976	90.771753	44.968270	623.890945	175.312046	-55.231956	512.052746	-158.128308	-71.349011	486.426800	-38.642329	96.006748	756.146684	-69.786328	44.720158	643.165134	-32.701353	59.074621	638.863283	-108.800243	-155.122581	104.331635	222.902649	-131.950771	119.368112	130.353658	-27.637540	327.171700	189.285916	-86.534706	223.349923	143.886720	-87.059682	225.432596	225.574170	-146.529494	97.349750	-152.516550	-124.742891	120.684130	-60.923516	-38.934472	366.653569	-125.120907	-79.449039	252.129421	-85.250121	-74.502893	254.668025	-166.085370	-225.724897	58.240587	179.607623	5.799334	65.007005	165.553643	-8.769737	58.250962	238.246336	-220.145754	55.627173	-104.794655	8.699707	60.846359	-83.508725	-15.660981	55.391705	-171.367622	13.837783	1393.437415	14.780652	-74.800370	1444.153564	204.984032	-72.065972	1438.132329	-178.652425	-135.636193	109.016940	-106.720033	-143.536676	111.849873	176.628153	11.362286	905.138843	-55.425670	-1.936996	910.108207	114.150832	-63.290484	499.239773	-98.385318	-40.194335	499.709782	149.748607	
159	1.580000	-133.375066	1010.089272	19.124961	67.603511	983.137778	150.364845	86.074277	976.223193	-84.545738	-42.655230	504.791093	204.020542	-37.506244	494.628697	95.505751	93.526533	737.711622	141.335913	44.010125	631.915937	90.803976	45.108482	623.895242	175.334410	-55.095661	512.042510	-158.139068	-71.223710	486.416333	-38.644279	96.190134	756.132140	-69.738669	44.797331	643.096582	-32.662079	59.245076	638.850884	-108.757951	-155.107295	104.337595	222.896041	-131.930169	119.374236	130.344528	-27.574515	327.155731	189.296317	-86.497841	223.345308	143.882337	-87.026728	225.427726	225.575440	-146.521463	97.358259	-152.512208	-124.733971	120.688508	-60.920195	-38.850380	366.633284	-125.103689	-79.399575	252.117043	-85.242945	-74.444622	254.661496	-166.077775	-225.723098	58.253588	179.601515	5.914111	65.200045	165.577951	-8.768388	58.249260	238.246119	-220.143217	55.633776	-104.792853	8.700640	60.842769	-83.504862	-15.659155	55.390636	-171.366604	13.776837	1393.436911	14.749477	-74.905163	1444.120893	204.941850	-72.115019	1438.087962	-178.709042	-135.627717	109.023384	-106.716202	-143.518732	111.855915	176.620284	11.573380	905.113801	-55.419948	-1.761283	910.105671	114.169851	-63.159686	499.229421	-98.391673	-40.080737	499.709895	149.763147	
160	1.590000	-133.212278	1010.031325	19.113526	67.744033	983.178526	150.388665	86.261034	976.231218	-84.542277	-42.557173	504.782895	204.028509	-37.388860	494.639408	95.523985	93.670498	737.718347	141.370548	44.146397	631.912653	90.836348	45.242669	623.900209	175.355978	-54.961112	512.036155	-158.162520	-71.096145	486.403901	-38.657759	96.370767	756.118271	-69.691240	44.906144	643.055932	-32.625426	59.411964	638.839460	-108.716204	-155.098459	104.347225	222.887951	-131.909779	119.380259	130.335636	-27.514916	327.142730	189.307209	-86.459857	223.342545	143.878095	-86.996082	225.425002	225.577002	-146.512923	97.367263	-152.507197	-124.724810	120.693532	-60.917348	-38.768917	366.615116	-125.086979	-79.349856	252.106799	-85.235304	-74.387260	254.656190	-166.070375	-225.721579	58.266735	179.594470	6.023938	65.384885	165.600255	-8.767020	58.247259	238.246112	-220.137944	55.641121	-104.793661	8.702264	60.839279	-83.500966	-15.657365	55.389423	-171.365258	13.718605	1393.437999	14.717800	-75.006043	1444.092162	204.898023	-72.163171	1438.047991	-178.763985	-135.618866	109.030397	-106.712272	-143.504119	111.863742	176.611794	11.782547	905.091026	-55.413376	-1.585374	910.106474	114.189585	-63.028628	499.220028	-98.410139	-39.973016	499.711151	149.776247	
